<?xml version="1.0" encoding="UTF-8" standalone="no"?>
<!-- Created with Inkscape (http://www.inkscape.org/) -->

<svg
   width="210mm"
   height="297mm"
   viewBox="0 0 210 297"
   version="1.1"
   id="svg17108"
   inkscape:export-filename="char_1.svg"
   inkscape:export-xdpi="96"
   inkscape:export-ydpi="96"
   xmlns:inkscape="http://www.inkscape.org/namespaces/inkscape"
   xmlns:sodipodi="http://sodipodi.sourceforge.net/DTD/sodipodi-0.dtd"
   xmlns="http://www.w3.org/2000/svg"
   xmlns:svg="http://www.w3.org/2000/svg">
  <sodipodi:namedview
     id="namedview17110"
     pagecolor="#ffffff"
     bordercolor="#999999"
     borderopacity="1"
     inkscape:showpageshadow="0"
     inkscape:pageopacity="0"
     inkscape:pagecheckerboard="0"
     inkscape:deskcolor="#d1d1d1"
     inkscape:document-units="mm"
     showgrid="false" />
  <defs
     id="defs17105" />
  <g
     inkscape:label="Layer 1"
     inkscape:groupmode="layer"
     id="layer1">
    <ellipse
       style="fill:#ffffff;fill-opacity:1;stroke:#000000;stroke-width:6.00001;stroke-opacity:1;stop-color:#000000"
       id="path19132"
       cx="105.90729"
       cy="176.27107"
       rx="59.548969"
       ry="56.072357" />
    <path
       id="path20016-9"
       style="fill:#c99b9b;stroke:#000000;stroke-width:6.00001;stop-color:#000000"
       d="m 152.82234,187.8612 a 17.190374,17.190374 0 0 1 -17.19038,17.19037 17.190374,17.190374 0 0 1 -17.19037,-17.19037 17.190374,17.190374 0 0 1 17.19037,-17.19038 17.190374,17.190374 0 0 1 17.19038,17.19038 z" />
    <path
       style="fill:#ffffff;fill-opacity:1;stroke:#000000;stroke-width:6.00001;stroke-opacity:1;stop-color:#000000"
       d="m 65.669084,216.62185 c 0,0 -19.27797,6.21201 -10.502374,26.07219 8.775595,19.86019 20.311664,12.45739 21.944091,4.90427 1.63243,-7.55314 -4.723961,-9.77875 -1.133769,-19.59212 2.268155,-6.19974 -10.307948,-11.38434 -10.307948,-11.38434 z"
       id="path20094"
       sodipodi:nodetypes="csssc" />
    <path
       style="fill:#ffffff;fill-opacity:1;stroke:#000000;stroke-width:6.00001;stroke-opacity:1;stop-color:#000000"
       d="m 161.71393,195.83539 c 0,0 10.5218,17.30669 27.79901,4.1562 17.27724,-13.15049 7.39633,-22.65049 -0.32936,-22.48303 -7.72572,0.16746 -8.4133,6.86703 -18.79233,5.65556 -6.55709,-0.76536 -8.67732,12.67127 -8.67732,12.67127 z"
       id="path20094-5"
       sodipodi:nodetypes="csssc" />
    <path
       style="fill:#ffffff;fill-opacity:1;stroke:#000000;stroke-width:6.00001;stroke-opacity:1;stop-color:#000000"
       d="m 48.329599,190.579 c 0,0 -13.494756,15.10367 -28.091224,-0.97055 -14.5964815,-16.07423 -3.152163,-23.61809 4.414143,-22.04791 7.566324,1.57019 7.023603,8.28305 17.449816,8.98001 6.586913,0.44033 6.227265,14.03845 6.227265,14.03845 z"
       id="path20094-5-0"
       sodipodi:nodetypes="csssc" />
    <path
       style="fill:#ffffff;fill-opacity:1;stroke:#000000;stroke-width:6.00001;stroke-opacity:1;stop-color:#000000"
       d="m 142.50838,219.76721 c 0,0 19.27797,6.21201 10.50238,26.07219 -8.7756,19.86019 -20.31167,12.45739 -21.94409,4.90427 -1.63243,-7.55314 4.72396,-9.77875 1.13377,-19.59212 -2.26816,-6.19974 10.30794,-11.38434 10.30794,-11.38434 z"
       id="path20094-7"
       sodipodi:nodetypes="csssc" />
    <path
       style="fill:#758a8b;fill-opacity:1;stroke:#000000;stroke-width:6.00001;stroke-opacity:1;stop-color:#000000"
       d="m 48.709715,160.66982 c 16.505346,5.85615 99.464995,1.72341 112.853155,-4.34094 12.07434,-5.46925 -21.56615,-32.92439 -37.30154,-47.74112 C 102.53943,88.13404 56.235903,77.451373 79.338417,99.287086 93.580654,112.74837 32.204368,154.81367 48.709715,160.66982 Z"
       id="path20167"
       sodipodi:nodetypes="zsssz" />
    <path
       id="path20224"
       style="fill:#c99b9b;stroke:#000000;stroke-width:6.00001;stop-color:#000000"
       d="m 152.82234,187.8612 a 17.190374,17.190374 0 0 1 -17.19038,17.19037 17.190374,17.190374 0 0 1 -17.19037,-17.19037 17.190374,17.190374 0 0 1 17.19037,-17.19038 17.190374,17.190374 0 0 1 17.19038,17.19038 z" />
    <path
       id="path20224-2"
       style="fill:#c99b9b;stroke:#000000;stroke-width:6.00001;stop-color:#000000"
       d="M 91.471169,187.8612 A 17.190374,17.190374 0 0 1 74.280795,205.05157 17.190374,17.190374 0 0 1 57.090421,187.8612 17.190374,17.190374 0 0 1 74.280795,170.67082 17.190374,17.190374 0 0 1 91.471169,187.8612 Z" />
  </g>
</svg>
