<?xml version="1.0" encoding="UTF-8" standalone="no"?>
<!-- Created with Inkscape (http://www.inkscape.org/) -->

<svg
   width="210mm"
   height="297mm"
   viewBox="0 0 210 297"
   version="1.1"
   id="svg17108"
   inkscape:export-filename="move_1.svg"
   inkscape:export-xdpi="96"
   inkscape:export-ydpi="96"
   xmlns:inkscape="http://www.inkscape.org/namespaces/inkscape"
   xmlns:sodipodi="http://sodipodi.sourceforge.net/DTD/sodipodi-0.dtd"
   xmlns="http://www.w3.org/2000/svg"
   xmlns:svg="http://www.w3.org/2000/svg">
  <sodipodi:namedview
     id="namedview17110"
     pagecolor="#ffffff"
     bordercolor="#999999"
     borderopacity="1"
     inkscape:showpageshadow="0"
     inkscape:pageopacity="0"
     inkscape:pagecheckerboard="0"
     inkscape:deskcolor="#d1d1d1"
     inkscape:document-units="mm"
     showgrid="false" />
  <defs
     id="defs17105" />
  <g
     inkscape:label="Layer 1"
     inkscape:groupmode="layer"
     id="layer1">
    <circle
       style="fill:#ffffff;fill-opacity:1;stroke:#000000;stroke-width:6.00001;stroke-opacity:1;stop-color:#000000"
       id="path19132"
       cx="105.90729"
       cy="172.79446"
       r="59.548969" />
    <path
       id="path20016-9"
       style="fill:#c99b9b;stroke:#000000;stroke-width:6.00001;stop-color:#000000"
       d="m 152.82234,187.8612 a 17.190374,17.190374 0 0 1 -17.19038,17.19037 17.190374,17.190374 0 0 1 -17.19037,-17.19037 17.190374,17.190374 0 0 1 17.19037,-17.19038 17.190374,17.190374 0 0 1 17.19038,17.19038 z" />
    <path
       style="fill:#ffffff;fill-opacity:1;stroke:#000000;stroke-width:6.00001;stroke-opacity:1;stop-color:#000000"
       d="m 74.712739,223.51901 c 0,0 -18.664004,-7.86665 -24.967333,12.91088 -6.303347,20.77755 7.269378,22.69155 13.433616,18.03144 6.164255,-4.66012 2.798154,-10.49333 11.920663,-15.58956 5.763279,-3.21962 -0.386946,-15.35276 -0.386946,-15.35276 z"
       id="path20094"
       sodipodi:nodetypes="csssc" />
    <path
       style="fill:#ffffff;fill-opacity:1;stroke:#000000;stroke-width:6.00001;stroke-opacity:1;stop-color:#000000"
       d="m 163.90109,186.31478 c 0,0 -2.67751,20.07637 19.02644,20.68947 21.70397,0.61309 19.97856,-12.98489 13.86049,-17.70543 -6.11811,-4.72055 -10.85984,0.062 -18.1772,-7.39774 -4.62284,-4.71281 -14.70973,4.4137 -14.70973,4.4137 z"
       id="path20094-5"
       sodipodi:nodetypes="csssc" />
    <path
       style="fill:#ffffff;fill-opacity:1;stroke:#000000;stroke-width:6.00001;stroke-opacity:1;stop-color:#000000"
       d="m 47.522649,185.88756 c 0,0 0.05167,20.25406 -21.548549,18.04769 -21.6002326,-2.20637 -18.1261812,-15.46583 -11.447649,-19.3532 6.678551,-3.88738 10.76011,1.46967 18.982972,-4.9783 5.19492,-4.07358 14.013226,6.28381 14.013226,6.28381 z"
       id="path20094-5-0"
       sodipodi:nodetypes="csssc" />
    <path
       style="fill:#ffffff;fill-opacity:1;stroke:#000000;stroke-width:6.00001;stroke-opacity:1;stop-color:#000000"
       d="m 153.70585,216.70803 c 0,0 16.80518,11.30555 2.87506,27.96057 -13.93013,16.65503 -22.96629,6.34822 -22.44417,-1.36162 0.52211,-7.70988 7.24619,-8.08904 6.51269,-18.51274 -0.4634,-6.58534 13.05642,-8.08621 13.05642,-8.08621 z"
       id="path20094-7"
       sodipodi:nodetypes="csssc" />
    <path
       style="fill:#758a8b;fill-opacity:1;stroke:#000000;stroke-width:6.00001;stroke-opacity:1;stop-color:#000000"
       d="m 48.709715,156.22589 c 16.505346,6.21925 99.464995,1.83027 112.853155,-4.61009 12.07434,-5.80835 -20.56996,-37.91511 -38.47386,-49.47423 C 99.100395,86.654031 54.090416,73.368929 78.166095,92.264227 94.040471,104.7229 32.204368,150.00665 48.709715,156.22589 Z"
       id="path20167"
       sodipodi:nodetypes="zsssz" />
    <path
       id="path20224"
       style="fill:#c99b9b;stroke:#000000;stroke-width:6.00001;stop-color:#000000"
       d="m 152.82234,187.8612 a 17.190374,17.190374 0 0 1 -17.19038,17.19037 17.190374,17.190374 0 0 1 -17.19037,-17.19037 17.190374,17.190374 0 0 1 17.19037,-17.19038 17.190374,17.190374 0 0 1 17.19038,17.19038 z" />
    <path
       id="path20224-2"
       style="fill:#c99b9b;stroke:#000000;stroke-width:6.00001;stop-color:#000000"
       d="M 91.471169,187.8612 A 17.190374,17.190374 0 0 1 74.280795,205.05157 17.190374,17.190374 0 0 1 57.090421,187.8612 17.190374,17.190374 0 0 1 74.280795,170.67082 17.190374,17.190374 0 0 1 91.471169,187.8612 Z" />
  </g>
</svg>
