<?xml version="1.0" encoding="UTF-8" standalone="no"?>
<!-- Created with Inkscape (http://www.inkscape.org/) -->

<svg
   width="210mm"
   height="297mm"
   viewBox="0 0 210 297"
   version="1.1"
   id="svg17108"
   inkscape:export-filename="char_1.png"
   inkscape:export-xdpi="96"
   inkscape:export-ydpi="96"
   xmlns:inkscape="http://www.inkscape.org/namespaces/inkscape"
   xmlns:sodipodi="http://sodipodi.sourceforge.net/DTD/sodipodi-0.dtd"
   xmlns="http://www.w3.org/2000/svg"
   xmlns:svg="http://www.w3.org/2000/svg">
  <sodipodi:namedview
     id="namedview17110"
     pagecolor="#ffffff"
     bordercolor="#999999"
     borderopacity="1"
     inkscape:showpageshadow="0"
     inkscape:pageopacity="0"
     inkscape:pagecheckerboard="0"
     inkscape:deskcolor="#d1d1d1"
     inkscape:document-units="mm"
     showgrid="false" />
  <defs
     id="defs17105" />
  <g
     inkscape:label="Layer 1"
     inkscape:groupmode="layer"
     id="layer1">
    <circle
       style="fill:#ffffff;fill-opacity:1;stroke:#000000;stroke-width:6.00001;stroke-opacity:1;stop-color:#000000"
       id="path19132"
       cx="105.90729"
       cy="172.79446"
       r="59.548969" />
    <path
       id="path20016-9"
       style="fill:#c99b9b;stroke:#000000;stroke-width:6.00001;stop-color:#000000"
       d="m 152.82234,187.8612 a 17.190374,17.190374 0 0 1 -17.19038,17.19037 17.190374,17.190374 0 0 1 -17.19037,-17.19037 17.190374,17.190374 0 0 1 17.19037,-17.19038 17.190374,17.190374 0 0 1 17.19038,17.19038 z" />
    <path
       style="fill:#ffffff;fill-opacity:1;stroke:#000000;stroke-width:6.00001;stroke-opacity:1;stop-color:#000000"
       d="m 59.401844,219.16522 c 0,0 -13.014054,15.51978 4.985903,27.66224 17.99996,12.14248 23.826039,-0.26474 21.187842,-7.52796 -2.638205,-7.26324 -9.204017,-5.76419 -11.387829,-15.98293 -1.379657,-6.45584 -14.785916,-4.15135 -14.785916,-4.15135 z"
       id="path20094"
       sodipodi:nodetypes="csssc" />
    <path
       style="fill:#ffffff;fill-opacity:1;stroke:#000000;stroke-width:6.00001;stroke-opacity:1;stop-color:#000000"
       d="m 161.42,194.34482 c 0,0 9.11778,18.08579 27.38242,6.34525 18.26466,-11.74055 9.16735,-21.99341 1.45267,-22.43847 -7.71471,-0.44506 -8.93084,6.17899 -19.18128,4.14915 -6.47586,-1.28238 -9.65381,11.94407 -9.65381,11.94407 z"
       id="path20094-5"
       sodipodi:nodetypes="csssc" />
    <path
       style="fill:#ffffff;fill-opacity:1;stroke:#000000;stroke-width:6.00001;stroke-opacity:1;stop-color:#000000"
       d="m 47.603054,191.92988 c 0,0 -14.634959,14.00169 -27.929208,-3.16515 -13.2942608,-17.16685 -1.294859,-23.7923 6.125423,-21.63502 7.4203,2.15729 6.354096,8.80712 16.693832,10.31759 6.53228,0.95427 5.109953,14.48258 5.109953,14.48258 z"
       id="path20094-5-0"
       sodipodi:nodetypes="csssc" />
    <path
       style="fill:#ffffff;fill-opacity:1;stroke:#000000;stroke-width:6.00001;stroke-opacity:1;stop-color:#000000"
       d="m 131.54346,223.75559 c 0,0 15.83474,-12.62895 27.53145,5.6638 11.69671,18.29277 -0.84987,23.81236 -8.04609,20.99656 -7.19625,-2.8158 -5.53639,-9.34281 -15.69841,-11.77695 -6.42001,-1.5378 -3.78695,-14.88341 -3.78695,-14.88341 z"
       id="path20094-7"
       sodipodi:nodetypes="csssc" />
    <path
       style="fill:#758a8b;fill-opacity:1;stroke:#000000;stroke-width:6.00001;stroke-opacity:1;stop-color:#000000"
       d="m 48.709715,156.22589 c 16.505346,6.21925 99.464995,1.83027 112.853155,-4.61009 12.07434,-5.80835 -21.56615,-34.96577 -37.30154,-50.70117 -21.7219,-21.7219 -68.025427,-33.066917 -44.922913,-9.87734 14.242237,14.29591 -47.134049,58.96936 -30.628702,65.1886 z"
       id="path20167"
       sodipodi:nodetypes="zsssz" />
    <path
       id="path20224"
       style="fill:#c99b9b;stroke:#000000;stroke-width:6.00001;stop-color:#000000"
       d="m 152.82234,187.8612 a 17.190374,17.190374 0 0 1 -17.19038,17.19037 17.190374,17.190374 0 0 1 -17.19037,-17.19037 17.190374,17.190374 0 0 1 17.19037,-17.19038 17.190374,17.190374 0 0 1 17.19038,17.19038 z" />
    <path
       id="path20224-2"
       style="fill:#c99b9b;stroke:#000000;stroke-width:6.00001;stop-color:#000000"
       d="M 91.471169,187.8612 A 17.190374,17.190374 0 0 1 74.280795,205.05157 17.190374,17.190374 0 0 1 57.090421,187.8612 17.190374,17.190374 0 0 1 74.280795,170.67082 17.190374,17.190374 0 0 1 91.471169,187.8612 Z" />
  </g>
</svg>
