<?xml version="1.0" encoding="UTF-8" standalone="no"?>
<!-- Created with Inkscape (http://www.inkscape.org/) -->

<svg
   width="161.71474mm"
   height="193.44804mm"
   viewBox="0 0 161.71474 193.44804"
   version="1.1"
   id="svg5"
   inkscape:export-filename="octo_1.svg"
   inkscape:export-xdpi="96"
   inkscape:export-ydpi="96"
   xmlns:inkscape="http://www.inkscape.org/namespaces/inkscape"
   xmlns:sodipodi="http://sodipodi.sourceforge.net/DTD/sodipodi-0.dtd"
   xmlns="http://www.w3.org/2000/svg"
   xmlns:svg="http://www.w3.org/2000/svg">
  <sodipodi:namedview
     id="namedview7"
     pagecolor="#ffffff"
     bordercolor="#999999"
     borderopacity="1"
     inkscape:showpageshadow="0"
     inkscape:pageopacity="0"
     inkscape:pagecheckerboard="0"
     inkscape:deskcolor="#d1d1d1"
     inkscape:document-units="mm"
     showgrid="false"
     inkscape:zoom="0.64693624"
     inkscape:cx="461.40559"
     inkscape:cy="498.50353"
     inkscape:window-width="2560"
     inkscape:window-height="1365"
     inkscape:window-x="-9"
     inkscape:window-y="-9"
     inkscape:window-maximized="1"
     inkscape:current-layer="layer1" />
  <defs
     id="defs2" />
  <g
     inkscape:label="Layer 1"
     inkscape:groupmode="layer"
     id="layer1"
     transform="translate(-23.660813,-46.818434)">
    <ellipse
       style="fill:#000000;fill-opacity:1;stroke-width:0.800001;-inkscape-stroke:none;stop-color:#000000"
       id="path898-1"
       cx="100.38387"
       cy="169.43164"
       rx="34.868008"
       ry="31.828527" />
    <path
       style="fill:#000000;fill-opacity:1;stroke-width:0.800001;-inkscape-stroke:none;stop-color:#000000"
       d="m 86.638563,202.47451 c 0,0 -24.86437,12.93867 -7.833586,29.87056 17.030783,16.9319 17.199613,0.41475 13.466926,-6.5591 -3.732677,-6.97385 5.661646,-15.92578 5.661646,-15.92578 z"
       id="path1072" />
    <path
       style="fill:#000000;fill-opacity:1;stroke-width:0.800001;-inkscape-stroke:none;stop-color:#000000"
       d="m 83.495579,197.84852 c 0,0 -19.772825,-14.13406 -26.348251,5.91959 -6.57542,20.05363 6.373238,13.54294 10.359319,7.83564 3.986073,-5.70727 14.626049,-2.00112 14.626049,-2.00112 z"
       id="path1072-5" />
    <path
       style="fill:#000000;fill-opacity:1;stroke-width:0.800001;-inkscape-stroke:none;stop-color:#000000"
       d="m 121.48217,196.44979 c 0,0 21.64524,-11.05532 25.18346,9.75011 3.53823,20.80543 -8.30551,12.45182 -11.40395,6.21793 -3.09845,-6.23389 -14.16944,-4.14159 -14.16944,-4.14159 z"
       id="path1072-5-7" />
    <path
       style="fill:#000000;fill-opacity:1;stroke-width:0.800001;-inkscape-stroke:none;stop-color:#000000"
       d="m 81.262572,149.36466 c 0,0 -21.339682,11.6342 -25.436897,-9.06841 -4.097209,-20.70259 7.967192,-12.67096 11.232395,-6.52274 3.26519,6.14819 14.275827,3.75851 14.275827,3.75851 z"
       id="path1072-5-2" />
    <path
       style="fill:#000000;fill-opacity:1;stroke-width:0.800001;-inkscape-stroke:none;stop-color:#000000"
       d="m 118.64788,148.29792 c 0,0 21.04069,12.1666 25.65668,-8.42655 4.61599,-20.59314 -7.64636,-12.8671 -11.06497,-6.80287 -3.41861,6.06423 -14.36575,3.3987 -14.36575,3.3987 z"
       id="path1072-5-7-1" />
    <path
       style="fill:#000000;fill-opacity:1;stroke-width:0.800001;-inkscape-stroke:none;stop-color:#000000"
       d="m 70.694889,189.31925 c 0,0 -38.197858,27.74853 -45.531844,-21.62892 -7.333971,-49.37743 14.261206,-30.22131 20.105889,-15.5573 5.844669,14.66396 25.553617,8.96438 25.553617,8.96438 z"
       id="path1072-5-2-7" />
    <path
       style="fill:#000000;fill-opacity:1;stroke-width:0.800001;-inkscape-stroke:none;stop-color:#000000"
       d="m 137.61429,186.77497 c 0,0 37.66267,29.01838 45.92524,-20.09802 8.2626,-49.11637 -13.68692,-30.68913 -19.80621,-16.22544 -6.11929,14.46371 -25.71457,8.10621 -25.71457,8.10621 z"
       id="path1072-5-7-1-2" />
    <path
       style="fill:#000000;fill-opacity:1;stroke-width:0.800001;-inkscape-stroke:none;stop-color:#000000"
       d="m 113.27531,203.00815 c 0,0 24.86339,12.94055 7.83131,29.87115 -17.03208,16.93059 -17.19964,0.41343 -13.46643,-6.56013 3.73322,-6.97355 -5.66042,-15.92621 -5.66042,-15.92621 z"
       id="path1072-7" />
    <circle
       style="fill:none;fill-opacity:1;stroke-width:0.800001;-inkscape-stroke:none;stop-color:#000000"
       id="path10930"
       cx="98.55175"
       cy="205.57237"
       r="1.1354462" />
    <path
       style="fill:none;fill-opacity:1;stroke-width:0.799999;-inkscape-stroke:none;stop-color:#000000"
       d="m 55.545375,175.75633 -1.75656,-88.812528 c 0,0 5.104143,-40.125366 43.957154,-40.125366 38.853011,0 43.957161,40.125366 43.957161,40.125366 l 1.75656,88.812528 c 0,0 -5.25295,40.12537 -43.957157,40.12537 -38.704207,0 -43.957158,-40.12537 -43.957158,-40.12537 z"
       id="path20512" />
    <ellipse
       style="fill:#000000;fill-opacity:1;stroke-width:0.800001;-inkscape-stroke:none;stop-color:#000000"
       id="path20522"
       cx="98.624252"
       cy="180.21434"
       rx="14.155429"
       ry="13.300942" />
    <circle
       style="fill:#fa7d7d;fill-opacity:1;stroke-width:0.800001;-inkscape-stroke:none;stop-color:#000000"
       id="path7122"
       cx="98.624252"
       cy="177.99936"
       r="10.265417" />
    <circle
       style="fill:#f82222;fill-opacity:1;stroke-width:0.800001;-inkscape-stroke:none;stop-color:#000000"
       id="path7186"
       cx="98.624252"
       cy="177.99936"
       r="1.9059275" />
    <ellipse
       style="fill:none;fill-opacity:1;stroke-width:0.800001;-inkscape-stroke:none;stop-color:#000000"
       id="path20682"
       cx="98.551094"
       cy="134.57774"
       rx="1.8327746"
       ry="3.0253747" />
    <ellipse
       style="fill:#000000;fill-opacity:1;stroke-width:0.800001;-inkscape-stroke:none;stop-color:#000000"
       id="path22283"
       cx="101.09398"
       cy="171.22096"
       rx="48.516998"
       ry="40.832275" />
    <circle
       style="fill:#fa7d7d;fill-opacity:1;stroke-width:0.799993;-inkscape-stroke:none;stop-color:#000000"
       id="path7120-8-1-1"
       cx="161.97585"
       cy="172.72725"
       r="11.439888" />
    <circle
       style="fill:#f82222;fill-opacity:1;stroke-width:0.799993;-inkscape-stroke:none;stop-color:#000000"
       id="path7182-2-8-3"
       cx="161.97585"
       cy="172.72725"
       r="3.2956092" />
    <circle
       style="fill:#fa7d7d;fill-opacity:1;stroke-width:0.799993;-inkscape-stroke:none;stop-color:#000000"
       id="path7120-8-1-1-8"
       cx="43.204082"
       cy="175.16582"
       r="11.439888" />
    <circle
       style="fill:#f82222;fill-opacity:1;stroke-width:0.799993;-inkscape-stroke:none;stop-color:#000000"
       id="path7182-2-8-3-9"
       cx="43.204082"
       cy="175.16582"
       r="3.2956092" />
    <ellipse
       style="fill:none;fill-opacity:1;stroke-width:0.800001;-inkscape-stroke:none;stop-color:#000000"
       id="path22938"
       cx="98.946762"
       cy="110.78713"
       rx="2.2284479"
       ry="2.2939479" />
  </g>
</svg>
