<?xml version="1.0" encoding="UTF-8" standalone="no"?>
<!-- Created with Inkscape (http://www.inkscape.org/) -->

<svg
   width="161.71475mm"
   height="183.98833mm"
   viewBox="0 0 161.71475 183.98833"
   version="1.1"
   id="svg5"
   inkscape:export-filename="octo_1.svg"
   inkscape:export-xdpi="96"
   inkscape:export-ydpi="96"
   xmlns:inkscape="http://www.inkscape.org/namespaces/inkscape"
   xmlns:sodipodi="http://sodipodi.sourceforge.net/DTD/sodipodi-0.dtd"
   xmlns="http://www.w3.org/2000/svg"
   xmlns:svg="http://www.w3.org/2000/svg">
  <sodipodi:namedview
     id="namedview7"
     pagecolor="#ffffff"
     bordercolor="#999999"
     borderopacity="1"
     inkscape:showpageshadow="0"
     inkscape:pageopacity="0"
     inkscape:pagecheckerboard="0"
     inkscape:deskcolor="#d1d1d1"
     inkscape:document-units="mm"
     showgrid="false"
     inkscape:zoom="0.64693624"
     inkscape:cx="461.40559"
     inkscape:cy="498.50353"
     inkscape:window-width="2560"
     inkscape:window-height="1365"
     inkscape:window-x="-9"
     inkscape:window-y="-9"
     inkscape:window-maximized="1"
     inkscape:current-layer="layer1" />
  <defs
     id="defs2" />
  <g
     inkscape:label="Layer 1"
     inkscape:groupmode="layer"
     id="layer1"
     transform="translate(-23.371621,-46.818434)">
    <ellipse
       style="fill:#000000;fill-opacity:1;stroke-width:0.800001;-inkscape-stroke:none;stop-color:#000000"
       id="path898-1"
       cx="100.38387"
       cy="169.43164"
       rx="34.868008"
       ry="31.828527" />
    <path
       style="fill:#000000;fill-opacity:1;stroke-width:0.800001;-inkscape-stroke:none;stop-color:#000000"
       d="m 98.493684,198.93108 c 0,0 -26.479815,-9.19051 -27.093773,14.81698 -0.613965,24.0075 11.509202,12.78816 14.015704,5.28583 2.506508,-7.50233 15.465095,-6.82022 15.465095,-6.82022 z"
       id="path1072" />
    <path
       style="fill:#000000;fill-opacity:1;stroke-width:0.800001;-inkscape-stroke:none;stop-color:#000000"
       d="m 84.702046,200.90086 c 0,0 -16.445763,-17.89617 -27.00239,0.37793 -10.556617,18.27408 3.453731,14.56369 8.527721,9.79748 5.073977,-4.76618 14.725088,1.04766 14.725088,1.04766 z"
       id="path1072-5" />
    <path
       style="fill:#000000;fill-opacity:1;stroke-width:0.800001;-inkscape-stroke:none;stop-color:#000000"
       d="m 132.88936,190.33571 c 0,0 22.83792,8.31661 10.01577,25.07899 -12.82214,16.76239 -14.77377,2.40105 -12.32031,-4.11372 2.45346,-6.51478 -6.61956,-13.19497 -6.61956,-13.19497 z"
       id="path1072-5-7" />
    <path
       style="fill:#000000;fill-opacity:1;stroke-width:0.800001;-inkscape-stroke:none;stop-color:#000000"
       d="m 81.262572,149.36466 c 0,0 -21.339682,11.6342 -25.436897,-9.06841 -4.097209,-20.70259 7.967192,-12.67096 11.232395,-6.52274 3.26519,6.14819 14.275827,3.75851 14.275827,3.75851 z"
       id="path1072-5-2" />
    <path
       style="fill:#000000;fill-opacity:1;stroke-width:0.800001;-inkscape-stroke:none;stop-color:#000000"
       d="m 118.64788,148.29792 c 0,0 21.04069,12.1666 25.65668,-8.42655 4.61599,-20.59314 -7.64636,-12.8671 -11.06497,-6.80287 -3.41861,6.06423 -14.36575,3.3987 -14.36575,3.3987 z"
       id="path1072-5-7-1" />
    <path
       style="fill:#000000;fill-opacity:1;stroke-width:0.800001;-inkscape-stroke:none;stop-color:#000000"
       d="m 70.405697,181.06684 c 0,0 -38.197858,27.74853 -45.531844,-21.62892 -7.333971,-49.37743 14.261206,-30.22131 20.105889,-15.5573 5.844669,14.66396 25.553617,8.96438 25.553617,8.96438 z"
       id="path1072-5-2-7" />
    <path
       style="fill:#000000;fill-opacity:1;stroke-width:0.800001;-inkscape-stroke:none;stop-color:#000000"
       d="m 137.3251,178.52256 c 0,0 37.66267,29.01838 45.92524,-20.09802 8.2626,-49.11637 -13.68692,-30.68913 -19.80621,-16.22544 -6.11929,14.46371 -25.71457,8.10621 -25.71457,8.10621 z"
       id="path1072-5-7-1-2" />
    <path
       style="fill:#000000;fill-opacity:1;stroke-width:0.800001;-inkscape-stroke:none;stop-color:#000000"
       d="m 120.73067,203.47955 c 0,0 9.5236,26.36185 -14.47425,27.2784 -23.99785,0.91655 -12.932223,-11.34708 -5.46209,-13.94796 7.47013,-2.60086 6.62473,-15.54983 6.62473,-15.54983 z"
       id="path1072-7" />
    <circle
       style="fill:none;fill-opacity:1;stroke-width:0.800001;-inkscape-stroke:none;stop-color:#000000"
       id="path10930"
       cx="98.55175"
       cy="205.57237"
       r="1.1354462" />
    <path
       style="fill:none;fill-opacity:1;stroke-width:0.799999;-inkscape-stroke:none;stop-color:#000000"
       d="m 55.545375,175.75633 -1.75656,-88.812528 c 0,0 5.104143,-40.125366 43.957154,-40.125366 38.853011,0 43.957161,40.125366 43.957161,40.125366 l 1.75656,88.812528 c 0,0 -5.25295,40.12537 -43.957157,40.12537 -38.704207,0 -43.957158,-40.12537 -43.957158,-40.12537 z"
       id="path20512" />
    <ellipse
       style="fill:#000000;fill-opacity:1;stroke-width:0.800001;-inkscape-stroke:none;stop-color:#000000"
       id="path20522"
       cx="98.624252"
       cy="180.21434"
       rx="14.155429"
       ry="13.300942" />
    <circle
       style="fill:#fa7d7d;fill-opacity:1;stroke-width:0.800001;-inkscape-stroke:none;stop-color:#000000"
       id="path7122"
       cx="98.624252"
       cy="177.99936"
       r="10.265417" />
    <circle
       style="fill:#f82222;fill-opacity:1;stroke-width:0.800001;-inkscape-stroke:none;stop-color:#000000"
       id="path7186"
       cx="98.624252"
       cy="177.99936"
       r="1.9059275" />
    <ellipse
       style="fill:none;fill-opacity:1;stroke-width:0.800001;-inkscape-stroke:none;stop-color:#000000"
       id="path20682"
       cx="98.551094"
       cy="134.57774"
       rx="1.8327746"
       ry="3.0253747" />
    <ellipse
       style="fill:#000000;fill-opacity:1;stroke-width:0.800001;-inkscape-stroke:none;stop-color:#000000"
       id="path22283"
       cx="101.09398"
       cy="171.22096"
       rx="48.516998"
       ry="40.832275" />
    <circle
       style="fill:#fa7d7d;fill-opacity:1;stroke-width:0.799993;-inkscape-stroke:none;stop-color:#000000"
       id="path7120-8-1-1"
       cx="161.68666"
       cy="164.47484"
       r="11.439888" />
    <circle
       style="fill:#f82222;fill-opacity:1;stroke-width:0.799993;-inkscape-stroke:none;stop-color:#000000"
       id="path7182-2-8-3"
       cx="161.68666"
       cy="164.47484"
       r="3.2956092" />
    <circle
       style="fill:#fa7d7d;fill-opacity:1;stroke-width:0.799993;-inkscape-stroke:none;stop-color:#000000"
       id="path7120-8-1-1-8"
       cx="42.91489"
       cy="166.91341"
       r="11.439888" />
    <circle
       style="fill:#f82222;fill-opacity:1;stroke-width:0.799993;-inkscape-stroke:none;stop-color:#000000"
       id="path7182-2-8-3-9"
       cx="42.91489"
       cy="166.91341"
       r="3.2956092" />
    <ellipse
       style="fill:none;fill-opacity:1;stroke-width:0.800001;-inkscape-stroke:none;stop-color:#000000"
       id="path22938"
       cx="98.946762"
       cy="110.78713"
       rx="2.2284479"
       ry="2.2939479" />
  </g>
</svg>
