<?xml version="1.0" encoding="UTF-8" standalone="no"?>
<!-- Created with Inkscape (http://www.inkscape.org/) -->

<svg
   width="115.98476mm"
   height="204.27631mm"
   viewBox="0 0 115.98476 204.27631"
   version="1.1"
   id="svg5"
   inkscape:export-filename="tall_enemy_1.svg"
   inkscape:export-xdpi="96"
   inkscape:export-ydpi="96"
   xmlns:inkscape="http://www.inkscape.org/namespaces/inkscape"
   xmlns:sodipodi="http://sodipodi.sourceforge.net/DTD/sodipodi-0.dtd"
   xmlns="http://www.w3.org/2000/svg"
   xmlns:svg="http://www.w3.org/2000/svg">
  <sodipodi:namedview
     id="namedview7"
     pagecolor="#ffffff"
     bordercolor="#999999"
     borderopacity="1"
     inkscape:showpageshadow="0"
     inkscape:pageopacity="0"
     inkscape:pagecheckerboard="0"
     inkscape:deskcolor="#d1d1d1"
     inkscape:document-units="mm"
     showgrid="false"
     inkscape:zoom="0.64693624"
     inkscape:cx="461.40559"
     inkscape:cy="498.50353"
     inkscape:window-width="2560"
     inkscape:window-height="1365"
     inkscape:window-x="-9"
     inkscape:window-y="-9"
     inkscape:window-maximized="1"
     inkscape:current-layer="layer1" />
  <defs
     id="defs2" />
  <g
     inkscape:label="Layer 1"
     inkscape:groupmode="layer"
     id="layer1"
     transform="translate(-43.03608,-38.035048)">
    <ellipse
       style="fill:#000000;fill-opacity:1;stroke-width:0.799999;-inkscape-stroke:none;stop-color:#000000"
       id="path898"
       cx="99.502533"
       cy="175.75633"
       rx="43.957157"
       ry="40.125366" />
    <ellipse
       style="fill:#000000;fill-opacity:1;stroke-width:0.799999;-inkscape-stroke:none;stop-color:#000000"
       id="path898-1"
       cx="98.624252"
       cy="95.908745"
       rx="43.957157"
       ry="30.005047" />
    <path
       style="fill:#000000;fill-opacity:1;stroke-width:0.799999;-inkscape-stroke:none;stop-color:#000000"
       d="m 82.52285,194.66806 c 0,0 -31.34584,16.31143 -9.875591,37.65701 21.470249,21.34558 21.683088,0.52286 16.97739,-8.26889 -4.705685,-8.79174 7.137484,-20.0772 7.137484,-20.0772 z"
       id="path1072" />
    <path
       style="fill:#000000;fill-opacity:1;stroke-width:0.799999;-inkscape-stroke:none;stop-color:#000000"
       d="m 78.560575,188.8362 c 0,0 -24.927067,-17.81843 -33.216529,7.46266 -8.289454,25.28108 8.034569,17.07322 13.059714,9.87819 5.025134,-7.19501 18.438665,-2.52276 18.438665,-2.52276 z"
       id="path1072-5" />
    <path
       style="fill:#000000;fill-opacity:1;stroke-width:0.799999;-inkscape-stroke:none;stop-color:#000000"
       d="m 126.44924,187.07286 c 0,0 27.28757,-13.93715 31.74811,12.2917 4.46055,26.22884 -10.47053,15.69767 -14.37665,7.83877 -3.90613,-7.8589 -17.86304,-5.22119 -17.86304,-5.22119 z"
       id="path1072-5-7" />
    <path
       style="fill:#000000;fill-opacity:1;stroke-width:0.799999;-inkscape-stroke:none;stop-color:#000000"
       d="m 116.10308,195.3408 c 0,0 31.3446,16.31381 9.87272,37.65776 -21.47189,21.34393 -21.68312,0.5212 -16.97677,-8.27018 4.70637,-8.79137 -7.13593,-20.07775 -7.13593,-20.07775 z"
       id="path1072-7" />
    <circle
       style="fill:#fa7d7d;fill-opacity:1;stroke-width:0.799999;-inkscape-stroke:none;stop-color:#000000"
       id="path7114"
       cx="72.969177"
       cy="158.69402"
       r="9.326436" />
    <circle
       style="fill:#fa7d7d;fill-opacity:1;stroke-width:0.799999;-inkscape-stroke:none;stop-color:#000000"
       id="path7118"
       cx="89.453117"
       cy="190.79431"
       r="6.7237101" />
    <circle
       style="fill:#fa7d7d;fill-opacity:1;stroke-width:0.799999;-inkscape-stroke:none;stop-color:#000000"
       id="path7120"
       cx="104.49109"
       cy="158.26022"
       r="9.7602234" />
    <circle
       style="fill:#fa7d7d;fill-opacity:1;stroke-width:0.799999;-inkscape-stroke:none;stop-color:#000000"
       id="path7124"
       cx="124.73452"
       cy="164.18866"
       r="4.2655792" />
    <circle
       style="fill:#f82222;fill-opacity:1;stroke-width:0.799999;-inkscape-stroke:none;stop-color:#000000"
       id="path7180"
       cx="71.207703"
       cy="161.12933"
       r="3.1695871" />
    <circle
       style="fill:#f82222;fill-opacity:1;stroke-width:0.799999;-inkscape-stroke:none;stop-color:#000000"
       id="path7182"
       cx="108.03436"
       cy="155.98102"
       r="2.8117306" />
    <circle
       style="fill:#f82222;fill-opacity:1;stroke-width:0.799999;-inkscape-stroke:none;stop-color:#000000"
       id="path7184"
       cx="125.55654"
       cy="162.9437"
       r="1.3291817" />
    <circle
       style="fill:#f82222;fill-opacity:1;stroke-width:0.799999;-inkscape-stroke:none;stop-color:#000000"
       id="path7188"
       cx="90.914368"
       cy="191.83359"
       r="1.2269371" />
    <circle
       style="fill:none;fill-opacity:1;stroke-width:0.799999;-inkscape-stroke:none;stop-color:#000000"
       id="path10930"
       cx="96.314545"
       cy="131.35007"
       r="1.4314264" />
    <path
       style="fill:none;fill-opacity:1;stroke-width:0.799999;-inkscape-stroke:none;stop-color:#000000"
       d="m 55.545375,175.75633 -1.75656,-88.812528 c 0,0 5.104143,-40.125366 43.957154,-40.125366 38.853011,0 43.957161,40.125366 43.957161,40.125366 l 1.75656,88.812528 c 0,0 -5.25295,40.12537 -43.957157,40.12537 -38.704207,0 -43.957158,-40.12537 -43.957158,-40.12537 z"
       id="path20512" />
    <path
       style="display:inline;fill:#000000;fill-opacity:1;stroke-width:0.799999;-inkscape-stroke:none;stop-color:#000000"
       d="m 54.227954,86.366114 0.878281,89.967906 c 0,0 9.965569,39.92058 43.957158,40.12537 33.991587,0.20479 43.957157,-40.12537 43.957157,-40.12537 l -0.87828,-89.967906 c 0,0 -6.13123,-40.125363 -43.957159,-40.125363 -37.825925,0 -43.957157,40.125363 -43.957157,40.125363 z"
       id="path20514" />
    <ellipse
       style="fill:#000000;fill-opacity:1;stroke-width:0.799999;-inkscape-stroke:none;stop-color:#000000"
       id="path20522"
       cx="96.405945"
       cy="99.381889"
       rx="17.845367"
       ry="16.768139" />
    <circle
       style="fill:#fa7d7d;fill-opacity:1;stroke-width:0.799999;-inkscape-stroke:none;stop-color:#000000"
       id="path7122"
       cx="96.221504"
       cy="108.73557"
       r="12.941334" />
    <circle
       style="fill:#f82222;fill-opacity:1;stroke-width:0.799999;-inkscape-stroke:none;stop-color:#000000"
       id="path7186"
       cx="96.221504"
       cy="108.73557"
       r="2.4027514" />
    <ellipse
       style="fill:none;fill-opacity:1;stroke-width:0.799999;-inkscape-stroke:none;stop-color:#000000"
       id="path20682"
       cx="96.313721"
       cy="41.849056"
       rx="2.3105295"
       ry="3.8140082" />
  </g>
</svg>
