<?xml version="1.0" encoding="UTF-8" standalone="no"?>
<!-- Created with Inkscape (http://www.inkscape.org/) -->

<svg
   width="111.99995mm"
   height="200.74594mm"
   viewBox="0 0 111.99995 200.74594"
   version="1.1"
   id="svg5"
   inkscape:export-filename="tall_walk_2.svg"
   inkscape:export-xdpi="96"
   inkscape:export-ydpi="96"
   xmlns:inkscape="http://www.inkscape.org/namespaces/inkscape"
   xmlns:sodipodi="http://sodipodi.sourceforge.net/DTD/sodipodi-0.dtd"
   xmlns="http://www.w3.org/2000/svg"
   xmlns:svg="http://www.w3.org/2000/svg">
  <sodipodi:namedview
     id="namedview7"
     pagecolor="#ffffff"
     bordercolor="#999999"
     borderopacity="1"
     inkscape:showpageshadow="0"
     inkscape:pageopacity="0"
     inkscape:pagecheckerboard="0"
     inkscape:deskcolor="#d1d1d1"
     inkscape:document-units="mm"
     showgrid="false"
     inkscape:zoom="0.64693624"
     inkscape:cx="461.40559"
     inkscape:cy="498.50353"
     inkscape:window-width="2560"
     inkscape:window-height="1365"
     inkscape:window-x="-9"
     inkscape:window-y="-9"
     inkscape:window-maximized="1"
     inkscape:current-layer="layer1" />
  <defs
     id="defs2" />
  <g
     inkscape:label="Layer 1"
     inkscape:groupmode="layer"
     id="layer1"
     transform="translate(-44.560269,-38.035048)">
    <ellipse
       style="fill:#000000;fill-opacity:1;stroke-width:0.799999;-inkscape-stroke:none;stop-color:#000000"
       id="path898"
       cx="99.502533"
       cy="175.75633"
       rx="43.957157"
       ry="40.125366" />
    <ellipse
       style="fill:#000000;fill-opacity:1;stroke-width:0.799999;-inkscape-stroke:none;stop-color:#000000"
       id="path898-1"
       cx="98.624252"
       cy="85.788429"
       rx="43.957157"
       ry="40.125366" />
    <path
       style="fill:#000000;fill-opacity:1;stroke-width:0.799999;-inkscape-stroke:none;stop-color:#000000"
       d="m 103.50682,199.98627 c 0,0 -29.379059,-19.63404 -37.764295,9.45707 -8.38524,29.09112 9.972277,19.26093 15.416262,10.9062 5.443981,-8.35471 21.035023,-3.40077 21.035023,-3.40077 z"
       id="path1072" />
    <path
       style="fill:#000000;fill-opacity:1;stroke-width:0.799999;-inkscape-stroke:none;stop-color:#000000"
       d="m 64.930082,181.25438 c 0,0 -30.02617,6.1061 -17.16863,29.39842 12.857538,23.29231 17.971447,5.75121 16.128549,-2.82925 -1.842893,-8.58044 10.716058,-15.21562 10.716058,-15.21562 z"
       id="path1072-5" />
    <path
       style="fill:#000000;fill-opacity:1;stroke-width:0.799999;-inkscape-stroke:none;stop-color:#000000"
       d="m 127.39352,183.65342 c 0,0 29.27521,-9.04531 29.16639,17.55989 -0.1088,26.6052 -13.01013,13.66694 -15.50899,5.25411 -2.49886,-8.41284 -16.70139,-8.2105 -16.70139,-8.2105 z"
       id="path1072-5-7" />
    <path
       style="fill:#000000;fill-opacity:1;stroke-width:0.799999;-inkscape-stroke:none;stop-color:#000000"
       d="m 108.41708,193.03992 c 0,0 35.14697,3.64896 23.02477,31.39168 -12.12221,27.7427 -19.97327,8.45562 -18.82825,-1.45028 1.14504,-9.90591 -14.017046,-16.04869 -14.017046,-16.04869 z"
       id="path1072-7" />
    <circle
       style="fill:#fa7d7d;fill-opacity:1;stroke-width:0.799999;-inkscape-stroke:none;stop-color:#000000"
       id="path7114"
       cx="72.969177"
       cy="158.69402"
       r="9.326436" />
    <circle
       style="fill:#fa7d7d;fill-opacity:1;stroke-width:0.799999;-inkscape-stroke:none;stop-color:#000000"
       id="path7118"
       cx="89.453117"
       cy="190.79431"
       r="6.7237101" />
    <circle
       style="fill:#fa7d7d;fill-opacity:1;stroke-width:0.799999;-inkscape-stroke:none;stop-color:#000000"
       id="path7120"
       cx="104.49109"
       cy="158.26022"
       r="9.7602234" />
    <circle
       style="fill:#fa7d7d;fill-opacity:1;stroke-width:0.799999;-inkscape-stroke:none;stop-color:#000000"
       id="path7124"
       cx="124.73452"
       cy="164.18866"
       r="4.2655792" />
    <circle
       style="fill:#f82222;fill-opacity:1;stroke-width:0.799999;-inkscape-stroke:none;stop-color:#000000"
       id="path7180"
       cx="71.207703"
       cy="161.12933"
       r="3.1695871" />
    <circle
       style="fill:#f82222;fill-opacity:1;stroke-width:0.799999;-inkscape-stroke:none;stop-color:#000000"
       id="path7182"
       cx="108.03436"
       cy="155.98102"
       r="2.8117306" />
    <circle
       style="fill:#f82222;fill-opacity:1;stroke-width:0.799999;-inkscape-stroke:none;stop-color:#000000"
       id="path7184"
       cx="125.55654"
       cy="162.9437"
       r="1.3291817" />
    <circle
       style="fill:#f82222;fill-opacity:1;stroke-width:0.799999;-inkscape-stroke:none;stop-color:#000000"
       id="path7188"
       cx="90.914368"
       cy="191.83359"
       r="1.2269371" />
    <circle
       style="fill:none;fill-opacity:1;stroke-width:0.799999;-inkscape-stroke:none;stop-color:#000000"
       id="path10930"
       cx="96.314545"
       cy="131.35007"
       r="1.4314264" />
    <path
       style="fill:none;fill-opacity:1;stroke-width:0.799999;-inkscape-stroke:none;stop-color:#000000"
       d="m 55.545375,175.75633 -1.75656,-88.812528 c 0,0 5.104143,-40.125366 43.957154,-40.125366 38.853011,0 43.957161,40.125366 43.957161,40.125366 l 1.75656,88.812528 c 0,0 -5.25295,40.12537 -43.957157,40.12537 -38.704207,0 -43.957158,-40.12537 -43.957158,-40.12537 z"
       id="path20512" />
    <path
       style="fill:#000000;fill-opacity:1;stroke-width:0.799999;-inkscape-stroke:none;stop-color:#000000"
       d="m 54.227954,86.366114 0.878281,89.967906 c 0,0 9.965569,39.92058 43.957158,40.12537 33.991587,0.20479 43.957157,-40.12537 43.957157,-40.12537 l -0.87828,-89.967906 c 0,0 -6.13123,-40.125363 -43.957159,-40.125363 -37.825925,0 -43.957157,40.125363 -43.957157,40.125363 z"
       id="path20514" />
    <ellipse
       style="fill:#000000;fill-opacity:1;stroke-width:0.799999;-inkscape-stroke:none;stop-color:#000000"
       id="path20522"
       cx="96.405945"
       cy="99.381889"
       rx="17.845367"
       ry="16.768139" />
    <circle
       style="fill:#fa7d7d;fill-opacity:1;stroke-width:0.799999;-inkscape-stroke:none;stop-color:#000000"
       id="path7122"
       cx="96.405945"
       cy="96.589516"
       r="12.941334" />
    <circle
       style="fill:#f82222;fill-opacity:1;stroke-width:0.799999;-inkscape-stroke:none;stop-color:#000000"
       id="path7186"
       cx="96.405945"
       cy="96.589516"
       r="2.4027514" />
    <ellipse
       style="fill:none;fill-opacity:1;stroke-width:0.799999;-inkscape-stroke:none;stop-color:#000000"
       id="path20682"
       cx="96.313721"
       cy="41.849056"
       rx="2.3105295"
       ry="3.8140082" />
  </g>
</svg>
